# xmcd
#
# Track frame offsets: 
#        150
#        16661
#        30203
#        47877
#        64714
#        82684
#        99620
#        117368
#        134988
#        150522
#        164875
#        179590
#        183647
#        200747
#        217892
#
# Disc length: 3106 seconds
#
# Revision: 3
# Processed by: cddbd v1.5.2PL0 Copyright (c) Steve Scherf et al.
# Submitted via: ExactAudioCopyFreeDBPlugin 1.0
#
DISCID=d00c200f
DTITLE=Brad Paisley - Moonshine In The Trunk
DYEAR=2014
DGENRE=Country
TTITLE0=Crushin' It
TTITLE1=River Bank
TTITLE2=Perfect Storm
TTITLE3=High Life (feat. Carrie Underwood)
TTITLE4=Moonshine In The Trunk
TTITLE5=Shattered Glass
TTITLE6=Limes
TTITLE7=You Shouldn't Have To
TTITLE8=4WP (feat. Brad Paisley)
TTITLE9=Cover Girl
TTITLE10=Gone Green (feat. Emmylou Harris)
TTITLE11=JFK 1962
TTITLE12=American Flag On The Moon
TTITLE13=Country Nation
TTITLE14=Me And Jesus (Dedicated To George and Nancy Jones)
EXTD=YEAR: 2014
EXTT0=
EXTT1=
EXTT2=
EXTT3=
EXTT4=
EXTT5=
EXTT6=
EXTT7=
EXTT8=
EXTT9=
EXTT10=
EXTT11=
EXTT12=
EXTT13=
EXTT14=
PLAYORDER=
